<svg width="17" height="24" viewBox="0 0 17 24" fill="none" xmlns="http://www.w3.org/2000/svg">
<path d="M1.39659 6.62432C1.31203 5.42623 1.57777 4.24606 2.28139 3.29684C2.89139 2.43632 3.6856 1.96636 4.64288 1.69172C5.44917 1.4525 5.97764 1.74561 6.21017 2.64204C6.54235 3.98224 7.01647 5.3225 7.1886 6.73361C7.24296 7.35485 6.84132 8.23322 6.40647 8.6856C5.31632 9.75888 5.54281 10.5399 6.37024 12.1643C6.62693 12.6881 7.03461 13.5934 7.82882 14.7919C8.65626 15.9992 9.09413 16.6472 10.1571 16.0975C11.3379 15.5035 12.1985 15.8855 13.0893 16.8444C13.6933 17.5369 14.3577 18.1318 14.9616 18.8243C15.8344 19.8542 15.7951 20.5641 15.1126 21.2915C13.8836 22.6309 11.8543 23.0736 10.3444 22.1766C9.51088 21.6881 8.68043 21.0487 8.01909 20.303C5.10496 16.9825 3.00315 13.1212 1.73784 8.76321C1.53551 8.02654 1.44189 7.28104 1.39659 6.62432Z" stroke="#D7D9DF" stroke-width="2" stroke-miterlimit="10"/>
</svg>
